<?xml version="1.0" encoding="UTF-8" standalone="no"?>
<!-- Created with Inkscape (http://www.inkscape.org/) -->

<svg
   width="512"
   height="512"
   viewBox="0 0 135.46666 135.46667"
   version="1.1"
   id="svg1"
   xml:space="preserve"
   sodipodi:docname="la-flamita-web.svg"
   inkscape:version="1.2.2 (b0a8486541, 2022-12-01)"
   xmlns:inkscape="http://www.inkscape.org/namespaces/inkscape"
   xmlns:sodipodi="http://sodipodi.sourceforge.net/DTD/sodipodi-0.dtd"
   xmlns="http://www.w3.org/2000/svg"
   xmlns:svg="http://www.w3.org/2000/svg"><sodipodi:namedview
     id="namedview1"
     pagecolor="#505050"
     bordercolor="#ffffff"
     borderopacity="1"
     inkscape:showpageshadow="0"
     inkscape:pageopacity="0"
     inkscape:pagecheckerboard="1"
     inkscape:deskcolor="#505050"
     inkscape:zoom="0.71777342"
     inkscape:cx="380.34287"
     inkscape:cy="282.81906"
     inkscape:window-width="1600"
     inkscape:window-height="827"
     inkscape:window-x="0"
     inkscape:window-y="0"
     inkscape:window-maximized="1"
     inkscape:current-layer="layer2"
     showgrid="false" /><defs
     id="defs1"><inkscape:path-effect
       effect="fillet_chamfer"
       id="path-effect2481"
       is_visible="true"
       lpeversion="1"
       nodesatellites_param="F,0,0,1,0,24,0,18 @ F,0,0,1,0,24,0,18 @ F,0,0,1,0,24,0,18 @ F,0,0,1,0,24,0,18 @ F,0,0,1,0,24,0,18 @ F,0,0,1,0,24,0,18"
       unit="px"
       method="auto"
       mode="F"
       radius="24"
       chamfer_steps="18"
       flexible="false"
       use_knot_distance="true"
       apply_no_radius="true"
       apply_with_radius="true"
       only_selected="false"
       hide_knots="false" /></defs><g
     inkscape:groupmode="layer"
     id="layer3"
     inkscape:label="Flama"
     sodipodi:insensitive="true"
     style="display:inline"><path
       d="M 12,12 C 14,9.04 12,5 11,4 11,7.038 9.227,8.741 8,10 6.774,11.26 6,13.24 6,15 a 6,6 0 1 0 12,0 c 0,-1.532 -1.056,-3.94 -2,-5 -1.786,3 -2.791,3 -4,2 z"
       id="path2"
       style="display:inline;fill:#db3832;fill-opacity:1;stroke:#9a2824;stroke-width:0.246083;stroke-linecap:round;stroke-linejoin:round;stroke-dasharray:none;stroke-opacity:1"
       transform="matrix(7.854933,0,0,7.854933,-26.525863,-30.453385)"
       inkscape:label="Rojo"
       sodipodi:insensitive="true" /><path
       d="M 12.04404,11.245454 C 5.8841204,8.2899223 7.6680892,4.0070592 5.0390831,-0.94227923 3.3036262,2.0202661 2.699419,5.2167318 2.456082,8.6639161 c 0.1699109,3.6267279 0.4009884,4.7970769 2.2686923,7.6573649 1.4729585,2.255757 4.8151892,3.985108 8.1288977,3.985108 3.313708,0 6.006274,-1.982561 7.032694,-5.457298 0.813142,-2.752727 -0.258301,-6.1655341 -1.622727,-7.9427315 -2.555446,2.9650252 -3.296832,5.1292455 -6.219599,4.3390945 z"
       id="path2-5"
       style="display:inline;fill:#f3e32a;fill-opacity:1;stroke:#d5c119;stroke-width:0.626921;stroke-linecap:round;stroke-linejoin:round;stroke-dasharray:none;stroke-opacity:1"
       transform="matrix(2.6348713,0,0,2.6348713,35.216062,72.64048)"
       sodipodi:nodetypes="cccssscc"
       inkscape:label="Amarillo"
       sodipodi:insensitive="true" /></g><g
     inkscape:groupmode="layer"
     id="layer2"
     inkscape:label="Extras"
     style="display:inline"><path
       id="path11"
       d="m 10,21 v -2 m 4,2 v -2 m 7,-5 h -2 m 2,-4 H 19 M 14,3 V 5 M 10,3 V 5 M 3,14 H 5 M 3,10 H 5 M 9,9 h 6 v 6 H 9 Z M 5,5 M 5,6 A 1,1 0 0 1 6,5 h 12 a 1,1 0 0 1 1,1 v 12 a 1,1 0 0 1 -1,1 H 6 A 1,1 0 0 1 5,18 Z"
       style="display:none;fill:#25a8e7;fill-opacity:1;stroke:#296dbb;stroke-width:1.99994;stroke-linecap:round;stroke-linejoin:round;stroke-dasharray:none;stroke-opacity:1"
       transform="matrix(2.0769103,0,0,2.0769103,72.391587,79.00617)"
       inkscape:label="IoT"
       sodipodi:insensitive="true" /><path
       id="path106"
       style="display:inline;fill:#aeeca3;fill-opacity:1;stroke:#58a149;stroke-width:1.99998;stroke-linecap:round;stroke-linejoin:round;stroke-dasharray:none;stroke-opacity:1"
       inkscape:label="nodejs"
       d="m 17,9 h -3.5 a 1.5,1.5 0 0 0 0,3 h 2 a 1.5,1.5 0 0 1 0,3 H 12 M 9,9 v 8.044 c -2.721e-4,1.537393 -1.6628084,2.499622 -2.996,1.734 l -1.568,-0.9 C 3.5437509,17.332904 2.9996722,16.36258 3,15.317 V 8.682 c 2.07e-5,-1.045224 0.5440549,-2.0150899 1.436,-2.56 l 6,-3.667 c 0.960165,-0.5865875 2.167835,-0.5865875 3.128,0 l 6,3.667 C 20.456249,6.6670957 21.000328,7.63742 21,8.683 v 6.634 c -2.1e-5,1.045224 -0.961345,2.024818 -1.712748,2.780156 l -5.74435,3.362996 c -1.15617,0.267142 -2.255232,0.233379 -3.313727,-0.02764 m 8.024247,-2.507877 -3.396524,1.987415 a 5.7253464,5.7253464 0 0 1 -5.7252499,0.0333 L 5.712234,18.997583 A 5.7253464,5.7253464 0 0 1 2.8207682,14.056023 L 2.7978788,10.120839 A 5.7253464,5.7253464 0 0 1 5.6316631,5.1459757 L 9.0281878,3.1585614 a 5.7253464,5.7253464 0 0 1 5.7252502,-0.033302 l 3.419414,1.9477686 a 5.7253464,5.7253464 0 0 1 2.891464,4.94156 l 0.02289,3.935184 a 5.7253464,5.7253464 0 0 1 -2.833784,4.974863 z"
       transform="matrix(1.9210231,0,0,1.9210231,75.444465,84.07792)" /><g
       id="g2760"
       transform="matrix(1.9609823,0,0,1.9609823,75.529862,83.627104)"
       style="display:none;fill:none;stroke:currentColor;stroke-width:2;stroke-linecap:round;stroke-linejoin:round"
       inkscape:label="react-native"><path
         id="path2752"
         style="display:inline;fill:#58c4dc;stroke:#2248ae;stroke-width:0;stroke-miterlimit:27.6"
         inkscape:label="fondo"
         transform="matrix(3.7795276,0,0,3.7795276,-212.61986,-163.28179)"
         d="m 61.01957,47.335731 c -0.344667,0.591952 0.351673,1.0381 -0.243892,1.376485 -0.600229,0.341036 -0.631793,-0.48417 -1.322137,-0.486705 -0.684978,-0.0025 -0.723184,0.823607 -1.314016,0.477025 -0.595461,-0.349296 0.103407,-0.789233 -0.23957,-1.388356 -0.340311,-0.594467 -1.074856,-0.214493 -1.070124,-0.899459 0.0048,-0.690332 0.7352,-0.305064 1.082567,-0.901652 0.344668,-0.591951 -0.351672,-1.038099 0.243892,-1.376484 0.60023,-0.341036 0.631793,0.48417 1.322137,0.486705 0.684979,0.0025 0.723184,-0.823607 1.314017,-0.477026 0.59546,0.349296 -0.103407,0.789234 0.239569,1.388357 0.340311,0.594466 1.074857,0.214492 1.070125,0.899459 -0.0048,0.690332 -0.7352,0.305063 -1.082568,0.901651 z" /><path
         id="path2679"
         style="display:inline;stroke:#174dac;stroke-opacity:1"
         d="m 12.26,12.015 h -0.01 c -0.01,0.13 -0.12,0.24 -0.26,0.24 a 0.263,0.263 0 0 1 -0.25,-0.26 c 0,-0.14 0.11,-0.25 0.24,-0.25 h -0.01 c 0.13,-0.01 0.25,0.11 0.25,0.24 M 8,12 c 0.285,-0.66 0.607,-1.308 0.968,-1.978 2.647,-4.844 6.253,-7.89 8.046,-6.801 1.11,0.679 1.262,2.706 0.56,5.393 M 17.66,15 C 20.272,14.313 22,13.15 22,11.824 22,9.714 17.592,8 12.155,8 11.408,8 10.889,8.029 10.2,8.087 M 12,18.52 c 1.928,2 3.817,2.95 4.978,2.253 C 18.828,19.671 18.099,14.801 15.345,9.9 14.961,9.223 14.568,8.696 14.165,8.1 m -7.736,7.287 c -0.702,2.688 -0.56,4.716 0.56,5.395 1.783,1.08 5.387,-1.958 8.043,-6.804 C 15.392,13.308 15.715,12.649 16,12 M 9.837,15.9 C 9.424,15.304 9.031,14.767 8.657,14.1 5.906,9.2 5.169,4.33 7.027,3.227 8.177,2.53 10.074,3.48 12.001,5.481 M 6.357,9 C 3.72,9.68 2,10.845 2,12.175 2,14.282 6.405,16 11.85,16 c 0.74,0 1.26,-0.039 1.95,-0.097"
         inkscape:label="trazo" /></g></g></svg>
